<svg width="138" height="39" viewBox="0 0 138 39" fill="none" xmlns="http://www.w3.org/2000/svg">
<rect width="138" height="39" rx="19.5" fill="black"/>
<path fill-rule="evenodd" clip-rule="evenodd" d="M26.1667 15.9C26.1489 14.5932 27.1932 13.519 28.5001 13.5H42.5001C43.8069 13.519 44.8512 14.5932 44.8334 15.9V26.7C44.8697 29.314 42.7807 31.4627 40.1667 31.5H30.8334C28.2194 31.4627 26.1304 29.314 26.1667 26.7V15.9Z" stroke="white" stroke-width="1.5" stroke-linecap="round" stroke-linejoin="round"/>
<path d="M40.1667 17.1V12.3C40.203 9.68604 38.114 7.53729 35.5 7.5C32.8861 7.53729 30.797 9.68604 30.8334 12.3V17.1" stroke="white" stroke-width="1.5" stroke-linecap="round" stroke-linejoin="round"/>
<path d="M67.4497 25.5H66.0577C65.9031 25.5 65.7697 25.46 65.6577 25.38C65.5511 25.2947 65.4497 25.172 65.3537 25.012L62.3217 20.812C62.1831 20.604 62.0337 20.46 61.8737 20.38C61.7137 20.2947 61.4951 20.252 61.2177 20.252H59.8417V25.5H58.2977V14.036H59.8417V19.06H61.0337C61.2737 19.06 61.4764 19.0227 61.6417 18.948C61.8124 18.8733 61.9804 18.7267 62.1457 18.508L65.1457 14.476C65.2257 14.348 65.3217 14.244 65.4337 14.164C65.5511 14.0787 65.6871 14.036 65.8417 14.036H67.1457L63.6817 18.748C63.4204 19.116 63.0844 19.3693 62.6737 19.508C62.9564 19.5827 63.1937 19.7027 63.3857 19.868C63.5831 20.028 63.7697 20.252 63.9457 20.54L67.4497 25.5ZM71.5027 17.268C72.0947 17.268 72.6281 17.3667 73.1027 17.564C73.5774 17.7613 73.9827 18.0413 74.3187 18.404C74.6547 18.7667 74.9107 19.2067 75.0867 19.724C75.2681 20.236 75.3587 20.8093 75.3587 21.444C75.3587 22.084 75.2681 22.66 75.0867 23.172C74.9107 23.684 74.6547 24.1213 74.3187 24.484C73.9827 24.8467 73.5774 25.1267 73.1027 25.324C72.6281 25.516 72.0947 25.612 71.5027 25.612C70.9054 25.612 70.3667 25.516 69.8867 25.324C69.4121 25.1267 69.0067 24.8467 68.6707 24.484C68.3347 24.1213 68.0761 23.684 67.8947 23.172C67.7187 22.66 67.6307 22.084 67.6307 21.444C67.6307 20.8093 67.7187 20.236 67.8947 19.724C68.0761 19.2067 68.3347 18.7667 68.6707 18.404C69.0067 18.0413 69.4121 17.7613 69.8867 17.564C70.3667 17.3667 70.9054 17.268 71.5027 17.268ZM71.5027 24.5C72.3027 24.5 72.9001 24.2333 73.2947 23.7C73.6894 23.1613 73.8867 22.412 73.8867 21.452C73.8867 20.4867 73.6894 19.7347 73.2947 19.196C72.9001 18.6573 72.3027 18.388 71.5027 18.388C71.0974 18.388 70.7427 18.4573 70.4387 18.596C70.1401 18.7347 69.8894 18.9347 69.6867 19.196C69.4894 19.4573 69.3401 19.78 69.2387 20.164C69.1427 20.5427 69.0947 20.972 69.0947 21.452C69.0947 22.412 69.2921 23.1613 69.6867 23.7C70.0867 24.2333 70.6921 24.5 71.5027 24.5ZM78.5969 23.548C78.8582 23.9 79.1435 24.148 79.4529 24.292C79.7622 24.436 80.1089 24.508 80.4929 24.508C81.2502 24.508 81.8315 24.2387 82.2369 23.7C82.6422 23.1613 82.8449 22.3933 82.8449 21.396C82.8449 20.868 82.7969 20.4147 82.7009 20.036C82.6102 19.6573 82.4769 19.348 82.3009 19.108C82.1249 18.8627 81.9089 18.684 81.6529 18.572C81.3969 18.46 81.1062 18.404 80.7809 18.404C80.3169 18.404 79.9089 18.5107 79.5569 18.724C79.2102 18.9373 78.8902 19.2387 78.5969 19.628V23.548ZM78.5249 18.652C78.8662 18.2307 79.2609 17.892 79.7089 17.636C80.1569 17.38 80.6689 17.252 81.2449 17.252C81.7142 17.252 82.1382 17.3427 82.5169 17.524C82.8955 17.7 83.2182 17.964 83.4849 18.316C83.7515 18.6627 83.9569 19.0947 84.1009 19.612C84.2449 20.1293 84.3169 20.724 84.3169 21.396C84.3169 21.9933 84.2369 22.5507 84.0769 23.068C83.9169 23.58 83.6849 24.0253 83.3809 24.404C83.0822 24.7773 82.7142 25.0733 82.2769 25.292C81.8449 25.5053 81.3569 25.612 80.8129 25.612C80.3169 25.612 79.8902 25.5293 79.5329 25.364C79.1809 25.1933 78.8689 24.9587 78.5969 24.66V28.244H77.1649V17.396H78.0209C78.2235 17.396 78.3489 17.4947 78.3969 17.692L78.5249 18.652ZM85.4497 18.228C85.7537 17.94 86.1217 17.708 86.5537 17.532C86.9911 17.356 87.5164 17.268 88.1297 17.268C88.6204 17.268 89.0524 17.3293 89.4257 17.452C89.7991 17.5693 90.1111 17.7267 90.3617 17.924C90.6177 18.1213 90.8097 18.348 90.9377 18.604C91.0711 18.8547 91.1377 19.116 91.1377 19.388C91.1377 19.548 91.1111 19.716 91.0577 19.892C91.0097 20.068 90.9271 20.236 90.8097 20.396C90.6924 20.556 90.5404 20.7053 90.3537 20.844C90.1671 20.9827 89.9351 21.0947 89.6577 21.18C90.1751 21.3347 90.5804 21.5827 90.8737 21.924C91.1724 22.2653 91.3217 22.684 91.3217 23.18C91.3217 23.5533 91.2364 23.892 91.0657 24.196C90.8951 24.4947 90.6657 24.7507 90.3777 24.964C90.0897 25.172 89.7537 25.332 89.3697 25.444C88.9911 25.556 88.5937 25.612 88.1777 25.612C87.9164 25.612 87.6497 25.588 87.3777 25.54C87.1111 25.492 86.8497 25.4173 86.5937 25.316C86.3377 25.2093 86.0951 25.0787 85.8657 24.924C85.6417 24.7693 85.4417 24.5827 85.2657 24.364L85.6657 23.844C85.7297 23.7533 85.8204 23.708 85.9377 23.708C86.0337 23.708 86.1351 23.7507 86.2417 23.836C86.3537 23.916 86.4897 24.0067 86.6497 24.108C86.8097 24.2093 87.0044 24.3027 87.2337 24.388C87.4684 24.468 87.7537 24.508 88.0897 24.508C88.3831 24.508 88.6444 24.4733 88.8737 24.404C89.1084 24.3293 89.3057 24.228 89.4657 24.1C89.6257 23.972 89.7484 23.82 89.8337 23.644C89.9191 23.468 89.9617 23.276 89.9617 23.068C89.9617 22.668 89.7937 22.3453 89.4577 22.1C89.1271 21.8547 88.6231 21.732 87.9457 21.732H87.0257V20.788H87.9457C88.2391 20.788 88.5031 20.7587 88.7377 20.7C88.9724 20.636 89.1724 20.5507 89.3377 20.444C89.5031 20.3373 89.6284 20.2093 89.7137 20.06C89.7991 19.9053 89.8417 19.74 89.8417 19.564C89.8417 19.404 89.8044 19.252 89.7297 19.108C89.6604 18.964 89.5511 18.8387 89.4017 18.732C89.2577 18.6253 89.0764 18.54 88.8577 18.476C88.6391 18.412 88.3831 18.38 88.0897 18.38C87.7697 18.38 87.4977 18.412 87.2737 18.476C87.0551 18.54 86.8684 18.6093 86.7137 18.684C86.5644 18.7587 86.4417 18.828 86.3457 18.892C86.2497 18.956 86.1671 18.988 86.0977 18.988C86.0284 18.988 85.9697 18.9747 85.9217 18.948C85.8791 18.9213 85.8311 18.8653 85.7777 18.78L85.4497 18.228ZM100.101 17.396V25.5H98.6772V19.996C98.6772 19.8893 98.6826 19.7747 98.6932 19.652C98.7039 19.5293 98.7172 19.4067 98.7332 19.284C98.6852 19.3907 98.6372 19.4893 98.5892 19.58C98.5412 19.6707 98.4906 19.7533 98.4372 19.828L94.5252 25.148C94.4666 25.2333 94.3919 25.316 94.3012 25.396C94.2159 25.4707 94.1199 25.508 94.0132 25.508H93.1492V17.404H94.5812V22.908C94.5812 23.0093 94.5759 23.1213 94.5652 23.244C94.5546 23.3613 94.5412 23.4813 94.5252 23.604C94.5732 23.5027 94.6212 23.4093 94.6692 23.324C94.7172 23.2333 94.7652 23.1507 94.8132 23.076L98.7252 17.756C98.7839 17.6707 98.8586 17.5907 98.9492 17.516C99.0399 17.436 99.1386 17.396 99.2452 17.396H100.101ZM109.104 17.396V25.5H107.672V21.708H103.784V25.5H102.352V17.396H103.784V20.628H107.672V17.396H109.104ZM115.76 21.852C115.104 21.8733 114.544 21.9267 114.08 22.012C113.621 22.092 113.245 22.1987 112.952 22.332C112.664 22.4653 112.453 22.6227 112.32 22.804C112.192 22.9853 112.128 23.188 112.128 23.412C112.128 23.6253 112.163 23.8093 112.232 23.964C112.301 24.1187 112.395 24.2467 112.512 24.348C112.635 24.444 112.776 24.516 112.936 24.564C113.101 24.6067 113.277 24.628 113.464 24.628C113.715 24.628 113.944 24.604 114.152 24.556C114.36 24.5027 114.555 24.428 114.736 24.332C114.923 24.236 115.099 24.1213 115.264 23.988C115.435 23.8547 115.6 23.7027 115.76 23.532V21.852ZM111.16 18.54C111.608 18.108 112.091 17.7853 112.608 17.572C113.125 17.3587 113.699 17.252 114.328 17.252C114.781 17.252 115.184 17.3267 115.536 17.476C115.888 17.6253 116.184 17.8333 116.424 18.1C116.664 18.3667 116.845 18.6893 116.968 19.068C117.091 19.4467 117.152 19.8627 117.152 20.316V25.5H116.52C116.381 25.5 116.275 25.4787 116.2 25.436C116.125 25.388 116.067 25.2973 116.024 25.164L115.864 24.396C115.651 24.5933 115.443 24.7693 115.24 24.924C115.037 25.0733 114.824 25.2013 114.6 25.308C114.376 25.4093 114.136 25.4867 113.88 25.54C113.629 25.5987 113.349 25.628 113.04 25.628C112.725 25.628 112.429 25.5853 112.152 25.5C111.875 25.4093 111.632 25.276 111.424 25.1C111.221 24.924 111.059 24.7027 110.936 24.436C110.819 24.164 110.76 23.844 110.76 23.476C110.76 23.156 110.848 22.8493 111.024 22.556C111.2 22.2573 111.485 21.9933 111.88 21.764C112.275 21.5347 112.789 21.348 113.424 21.204C114.059 21.0547 114.837 20.9693 115.76 20.948V20.316C115.76 19.6867 115.624 19.212 115.352 18.892C115.08 18.5667 114.683 18.404 114.16 18.404C113.808 18.404 113.512 18.4493 113.272 18.54C113.037 18.6253 112.832 18.724 112.656 18.836C112.485 18.9427 112.336 19.0413 112.208 19.132C112.085 19.2173 111.963 19.26 111.84 19.26C111.744 19.26 111.661 19.236 111.592 19.188C111.523 19.1347 111.464 19.0707 111.416 18.996L111.16 18.54Z" fill="white"/>
</svg>
