<svg width="180" height="47" viewBox="0 0 180 47" fill="none" xmlns="http://www.w3.org/2000/svg">
<path d="M39.841 46.7699H6.92887C3.08786 46.7699 0 43.682 0 39.841V6.92888C0 3.08788 3.08786 0 6.92887 0H39.841C43.682 0 46.7699 3.08788 46.7699 6.92888V39.841C46.7699 43.682 43.6067 46.7699 39.841 46.7699Z" fill="white"/>
<path d="M23.0467 15.1379C23.0467 15.1379 27.6408 12.3513 30.4274 10.7697C33.214 9.18811 34.7956 8.66091 36.3772 8.51028C37.9588 8.43497 39.7663 9.26342 39.7663 9.26342L34.7203 6.10024C34.7203 6.10024 34.0425 5.64836 32.1596 5.8743C30.2768 6.10024 29.2977 6.62744 28.0927 7.22995C26.8877 7.90777 18.8291 12.6525 18.8291 12.6525L23.0467 15.1379Z" fill="#231815"/>
<path d="M35.0966 13.0291C35.0966 13.0291 37.4314 16.2676 35.6238 21.9914C33.8163 27.7153 29.5987 30.9538 29.2975 31.1797C29.0715 31.4056 26.4355 32.9119 26.4355 32.9119L26.5109 37.4307C26.5109 37.4307 34.946 34.4935 38.4858 26.3596C41.6489 19.2048 39.6155 15.3638 38.0339 13.7069C37.1301 12.7278 35.0966 13.0291 35.0966 13.0291Z" fill="#231815"/>
<path d="M23.0467 37.3554L18.8291 34.87V12.7278L23.0467 15.1378V37.3554Z" fill="#231815"/>
<path d="M10.1678 30.8783L5.9502 28.3177V6.25073L10.0924 8.58546L10.1678 30.8783Z" fill="#231815"/>
<path d="M5.95007 28.3179C5.95007 28.3179 4.89568 37.6568 12.5024 41.0459C16.8706 43.0041 20.1091 41.8744 21.6153 40.3681C22.8204 39.1631 22.971 37.3555 22.971 37.3555L18.7534 34.7949C18.7534 34.7949 18.7534 35.6986 18.0756 36.3765C17.3224 37.2049 16.1174 38.0334 13.4061 36.6777C9.9417 34.8702 10.0923 30.8785 10.0923 30.8785L5.95007 28.3179Z" fill="#231815"/>
<path d="M10.0924 8.58564L13.4816 6.85342L9.64057 4.74463L5.9502 6.25091L10.0924 8.58564Z" fill="#231815"/>
<path d="M175.782 36.0754H177.439V36.452H176.761V38.1842H176.385V36.452H175.707L175.782 36.0754Z" fill="white"/>
<path d="M177.74 36.0754H178.192L178.87 37.4311L179.548 36.0754H180V38.1842H179.623V36.678L178.945 37.9583H178.719L178.041 36.678V38.1842H177.74V36.0754Z" fill="white"/>
<path d="M173.523 36.2259C173.523 36.979 173.523 37.5815 173.523 38.3346C170.435 38.3346 167.347 38.3346 164.335 38.3346C162.075 38.3346 162.075 38.3347 162.075 40.5188C162.075 43.7572 162.075 43.7572 165.238 43.7572C166.895 43.7572 168.552 43.6819 170.134 43.7572C171.339 43.8325 171.715 43.3807 171.565 42.251C171.489 41.5731 171.565 40.82 171.565 39.9915C172.318 39.9915 172.996 39.9915 173.899 39.9915C173.899 41.2719 173.975 42.4769 173.899 43.7572C173.824 45.0376 172.996 45.7907 171.791 45.866C168.477 45.9413 165.238 45.9413 161.924 45.866C160.418 45.866 159.665 44.8869 159.665 43.3807C159.665 41.8744 159.665 40.2928 159.665 38.7865C159.665 37.1296 160.418 36.3012 162 36.2259C165.841 36.1505 169.606 36.2259 173.523 36.2259Z" fill="white"/>
<path d="M56.7864 20.2593H59.1211V27.4894C59.1211 27.64 59.2718 27.7907 59.4224 27.7907H68.5354C68.686 27.7907 68.8366 27.64 68.8366 27.4894V20.2593H71.2467C71.2467 22.8953 71.322 25.4559 71.2467 28.0166C71.2467 29.2216 70.4182 29.9748 69.2885 29.9748C65.6734 30.0501 62.4349 30.0501 58.7446 29.9748C57.5395 29.9748 56.7864 29.1463 56.7864 27.866C56.7111 25.3806 56.7864 22.8199 56.7864 20.2593Z" fill="white"/>
<path d="M109.356 36.2258H111.69V43.3053C111.69 43.456 111.841 43.6066 111.992 43.6066H122.536V45.7907C122.536 45.7907 112.142 45.7907 112.067 45.7907C109.958 45.7907 109.28 44.9622 109.28 43.0794C109.356 41.0459 109.356 38.4852 109.356 36.2258Z" fill="white"/>
<path d="M139.707 36.3013C140.46 36.3013 141.063 36.3013 141.891 36.3013C141.891 39.4644 141.891 42.6276 141.891 45.8661C141.213 45.8661 140.535 45.8661 139.707 45.8661C139.707 42.6276 139.707 39.5398 139.707 36.3013Z" fill="white"/>
<path d="M104.309 24.9286C104.309 24.9286 104.686 24.3261 104.686 24.0249C105.138 22.2173 104.46 20.3345 102.652 20.2592C98.5853 20.1086 94.5184 20.1839 90.3008 20.1839C90.3008 23.4224 90.3008 26.5855 90.3008 29.8994C94.1418 29.8994 97.9075 29.8994 101.673 29.8994C104.61 29.8994 105.062 27.7152 104.61 25.6818C104.61 25.4558 104.309 24.9286 104.309 24.9286ZM101.824 27.7152L92.8615 27.7906V25.983C92.8615 25.983 100.167 25.983 101.824 25.983C101.974 25.983 102.125 26.1337 102.125 26.2843V27.414C102.125 27.5646 101.974 27.7152 101.824 27.7152ZM101.824 24.1755L92.8615 24.2508V22.4433C92.8615 22.4433 100.167 22.4433 101.824 22.4433C101.974 22.4433 102.125 22.5939 102.125 22.7445V23.8742C102.125 24.0249 101.974 24.1755 101.824 24.1755Z" fill="white"/>
<path d="M117.414 22.0668C116.661 20.5605 115.531 20.2593 114.025 20.2593C112.444 20.2593 111.389 20.5605 110.636 22.0668C110.636 22.0668 107.774 27.1881 106.117 29.9748H109.054L113.121 22.594C113.197 22.5187 113.272 22.4434 113.423 22.4434H114.778C114.854 22.4434 115.004 22.5187 115.08 22.594L119.146 29.9748C119.146 29.9748 121.331 29.9748 122.084 29.9748C120.276 27.1881 117.339 22.0668 117.414 22.0668Z" fill="white"/>
<path d="M137.447 20.2594H134.962C134.962 22.6694 134.962 25.0795 134.962 27.7908C134.962 27.7908 134.586 27.8661 134.058 27.4142C132.778 26.2092 129.916 22.7448 129.54 22.3682C129.54 22.3682 129.54 22.2929 129.464 22.2929C129.238 21.9916 129.012 21.7657 128.937 21.6904C128.033 20.7866 127.506 20.3347 125.849 20.1841H123.665C123.665 23.1213 123.665 26.9623 123.665 29.8996H126.15C126.15 27.4895 126.15 25.0795 126.15 22.3682C126.15 22.3682 126.527 22.2929 127.054 22.7448C128.334 23.9498 131.196 27.4142 131.573 27.7908C131.573 27.7908 131.573 27.8661 131.648 27.8661C131.874 28.1673 132.1 28.3933 132.175 28.4686C133.079 29.3724 133.606 29.8243 135.263 29.9749H137.447C137.447 27.0376 137.447 23.1966 137.447 20.2594Z" fill="white"/>
<path d="M71.1714 38.1088C71.1714 36.9791 70.343 36.3013 69.0626 36.3013C67.707 36.3013 66.276 36.3013 64.9204 36.3013C62.1338 36.3013 59.3472 36.3013 56.5605 36.3013C56.5605 39.5398 56.5605 42.6276 56.5605 45.8661C59.2718 45.8661 61.8325 45.8661 64.3932 45.8661C65.9748 45.8661 67.5564 45.8661 69.0626 45.8661C70.2677 45.8661 71.0961 45.113 71.1714 44.0586C71.1714 43.6067 71.1714 38.5607 71.1714 38.1088ZM68.8367 39.3891V42.7783V43.4561C68.8367 43.6067 68.6861 43.7573 68.5354 43.7573H59.1965C59.0459 43.7573 58.8953 43.6067 58.8953 43.4561V38.7866C58.8953 38.636 59.0459 38.4854 59.1965 38.4854H68.6861C68.8367 38.4854 68.8367 38.636 68.8367 38.7866V39.3891Z" fill="white"/>
<path d="M157.707 36.226H155.222C155.222 38.636 155.222 41.046 155.222 43.7573C155.222 43.7573 154.845 43.8326 154.318 43.3808C153.038 42.1757 150.176 38.7113 149.799 38.3347C149.799 38.3347 149.799 38.3347 149.724 38.2594C149.498 37.9582 149.272 37.7322 149.197 37.6569C148.293 36.7531 147.766 36.3013 146.109 36.1506H143.925C143.925 39.0879 143.925 42.9289 143.925 45.8661H146.41C146.41 43.4561 146.41 41.046 146.41 38.3347C146.41 38.3347 146.787 38.2594 147.314 38.7113C148.594 39.9163 151.456 43.3808 151.833 43.7573C151.833 43.7573 151.833 43.7573 151.908 43.8327C152.134 44.1339 152.36 44.3598 152.435 44.4352C153.339 45.3389 153.866 45.7908 155.523 45.9414H157.707C157.707 43.0042 157.707 39.1632 157.707 36.226Z" fill="white"/>
<path d="M89.6237 36.2258C89.2471 38.2593 88.6446 40.8953 88.1927 42.9288C88.1174 43.3806 87.9668 43.6819 87.5902 43.6819C87.1383 43.6819 87.1383 43.3806 86.9124 42.9288C86.9124 42.9288 85.4061 38.9371 84.653 37.2049C84.3517 36.5271 83.8998 36.2258 83.222 36.2258C82.9208 36.2258 82.6195 36.2258 82.3936 36.2258H82.3183H82.2429C82.017 36.2258 81.7158 36.2258 81.4145 36.2258C80.7367 36.2258 80.2848 36.5271 79.9835 37.2049C79.2304 38.9371 77.7241 42.9288 77.7241 42.9288C77.5735 43.3806 77.4982 43.6819 77.0463 43.6819C76.6697 43.6819 76.5191 43.3806 76.4438 42.9288C75.9919 40.82 75.4647 38.2593 75.0128 36.2258C74.1091 36.2258 73.3559 36.2258 72.4521 36.2258C73.0547 38.8618 73.6572 41.3472 74.1844 43.7572C74.4103 44.8116 74.7116 45.866 76.0672 45.7907C76.6697 45.7907 77.4982 45.7907 78.1007 45.7907C78.8538 45.7907 79.2304 45.2635 79.607 44.2091L81.7911 38.4099C82.017 37.8074 82.0923 37.7321 82.2429 37.7321C82.3936 37.7321 82.5442 37.8074 82.6948 38.4099L84.8789 44.2091C85.2555 45.2635 85.6321 45.7907 86.3852 45.7907C86.9877 45.7907 87.7409 45.7907 88.4187 45.7907C89.7743 45.7907 90.0756 44.8116 90.3015 43.7572C90.8287 41.3472 91.4312 38.7865 92.0337 36.2258C91.2806 36.2258 90.5275 36.2258 89.6237 36.2258Z" fill="white"/>
<path d="M106.494 40.2174H95.7238C95.4979 40.2174 95.3473 40.0667 95.3473 39.9161V38.7864C95.3473 38.6358 95.4979 38.4851 95.7238 38.4851C97.5314 38.4851 104.536 38.4851 106.494 38.4851H107.021C107.021 37.732 107.021 37.0542 107.021 36.3011C102.879 36.3011 98.8117 36.2257 94.6694 36.3764C92.9372 36.4517 92.4854 38.0333 92.4854 39.9914C92.4854 40.2927 92.4854 41.573 92.4854 41.8743C92.4854 43.9077 92.636 46.0165 95.5732 46.0165C99.3389 46.0165 103.105 46.0165 106.946 46.0165C106.946 45.2634 106.946 44.5103 106.946 43.8324H95.6485C95.4226 43.8324 95.272 43.6818 95.272 43.5312V42.2508C95.272 42.1002 95.4226 41.9496 95.6485 41.9496C97.682 41.9496 106.946 41.9496 106.946 41.9496C106.946 41.3471 106.946 40.7446 106.946 40.2174H106.494Z" fill="white"/>
<path d="M124.268 36.2258H126.602V43.3053C126.602 43.456 126.753 43.6066 126.904 43.6066H137.448V45.7907C137.448 45.7907 127.054 45.7907 126.979 45.7907C124.87 45.7907 124.192 44.9622 124.192 43.0794C124.268 41.0459 124.268 38.4852 124.268 36.2258Z" fill="white"/>
<path d="M84.0506 26.2092H85.1803C87.2138 26.1339 87.4398 25.0795 87.4398 23.272C87.4398 21.6151 86.9879 20.41 85.105 20.3347H75.2389H72.9795V30.0502H75.2389V26.2845H80.7368L84.8038 30.0502H87.9669C87.9669 29.9749 84.0506 26.2092 84.0506 26.2092ZM75.3142 24.1757V22.3682C75.9167 22.3682 82.7703 22.3682 84.3519 22.3682C84.5025 22.3682 84.6531 22.5188 84.6531 22.6694V23.7992C84.6531 23.9498 84.5025 24.1004 84.3519 24.1004L75.3142 24.1757Z" fill="white"/>
</svg>
